<svg width="21" height="20" viewBox="0 0 21 20" fill="none" xmlns="http://www.w3.org/2000/svg">
<path fill-rule="evenodd" clip-rule="evenodd" d="M5.77332 6.95618L6.27582 12.9328C6.31249 13.3928 6.68832 13.7378 7.14749 13.7378H7.15082H16.2433H16.245C16.6792 13.7378 17.05 13.4145 17.1117 12.9853L17.9033 7.51951C17.9217 7.38951 17.8892 7.25951 17.81 7.15451C17.7317 7.04868 17.6167 6.98034 17.4867 6.96201C17.3125 6.96868 10.085 6.95868 5.77332 6.95618ZM7.14582 14.9878C6.04832 14.9878 5.11915 14.1312 5.02999 13.0353L4.26665 3.95701L3.01082 3.74034C2.66999 3.68034 2.44249 3.35784 2.50082 3.01701C2.56082 2.67618 2.88999 2.45451 3.22332 2.50784L4.95665 2.80784C5.23582 2.85701 5.44832 3.08868 5.47249 3.37201L5.66832 5.70618C17.565 5.71118 17.6033 5.71701 17.6608 5.72368C18.125 5.79118 18.5333 6.03368 18.8117 6.40701C19.09 6.77951 19.2067 7.23868 19.14 7.69868L18.3492 13.1637C18.2 14.2037 17.2967 14.9878 16.2467 14.9878H16.2425H7.15249H7.14582Z" fill="#04263F"/>
<path fill-rule="evenodd" clip-rule="evenodd" d="M14.9067 10.0364H12.5967C12.2508 10.0364 11.9717 9.75644 11.9717 9.41144C11.9717 9.06644 12.2508 8.78644 12.5967 8.78644H14.9067C15.2517 8.78644 15.5317 9.06644 15.5317 9.41144C15.5317 9.75644 15.2517 10.0364 14.9067 10.0364Z" fill="#04263F"/>
<path fill-rule="evenodd" clip-rule="evenodd" d="M6.78717 17.2516C7.03801 17.2516 7.24051 17.4541 7.24051 17.7049C7.24051 17.9558 7.03801 18.1591 6.78717 18.1591C6.53551 18.1591 6.33301 17.9558 6.33301 17.7049C6.33301 17.4541 6.53551 17.2516 6.78717 17.2516Z" fill="#04263F"/>
<mask id="mask0_16_79" style="mask-type:luminance" maskUnits="userSpaceOnUse" x="6" y="17" width="2" height="2">
<path fill-rule="evenodd" clip-rule="evenodd" d="M6.33252 17.7046C6.33252 17.9563 6.53502 18.1596 6.78752 18.1596C7.03835 18.1596 7.24085 17.9563 7.24085 17.7046C7.24085 17.4538 7.03835 17.2513 6.78752 17.2513C6.53502 17.2513 6.33252 17.4538 6.33252 17.7046Z" fill="white"/>
</mask>
<g mask="url(#mask0_16_79)">
<path fill-rule="evenodd" clip-rule="evenodd" d="M2.1665 22.3254H11.4073V13.0846H2.1665V22.3254Z" fill="#04263F"/>
</g>
<path fill-rule="evenodd" clip-rule="evenodd" d="M6.78634 17.534C6.69217 17.534 6.61551 17.6107 6.61551 17.7049C6.61551 17.894 6.95801 17.894 6.95801 17.7049C6.95801 17.6107 6.88051 17.534 6.78634 17.534ZM6.78634 18.784C6.19134 18.784 5.70801 18.2999 5.70801 17.7049C5.70801 17.1099 6.19134 16.6265 6.78634 16.6265C7.38134 16.6265 7.86551 17.1099 7.86551 17.7049C7.86551 18.2999 7.38134 18.784 6.78634 18.784Z" fill="#04263F"/>
<path fill-rule="evenodd" clip-rule="evenodd" d="M16.1876 17.2516C16.4384 17.2516 16.6417 17.4541 16.6417 17.705C16.6417 17.9558 16.4384 18.1591 16.1876 18.1591C15.9359 18.1591 15.7334 17.9558 15.7334 17.705C15.7334 17.4541 15.9359 17.2516 16.1876 17.2516Z" fill="#04263F"/>
<mask id="mask1_16_79" style="mask-type:luminance" maskUnits="userSpaceOnUse" x="15" y="17" width="2" height="2">
<path fill-rule="evenodd" clip-rule="evenodd" d="M15.7334 17.7046C15.7334 17.9563 15.9359 18.1596 16.1876 18.1596C16.4376 18.1596 16.6417 17.9563 16.6417 17.7046C16.6417 17.4538 16.4376 17.2513 16.1876 17.2513C15.9359 17.2513 15.7334 17.4538 15.7334 17.7046Z" fill="white"/>
</mask>
<g mask="url(#mask1_16_79)">
<path fill-rule="evenodd" clip-rule="evenodd" d="M11.5669 22.3254H20.8086V13.0846H11.5669V22.3254Z" fill="#04263F"/>
</g>
<path fill-rule="evenodd" clip-rule="evenodd" d="M16.1867 17.534C16.0934 17.534 16.0167 17.6107 16.0167 17.7049C16.0176 17.8957 16.3592 17.894 16.3584 17.7049C16.3584 17.6107 16.2809 17.534 16.1867 17.534ZM16.1867 18.784C15.5917 18.784 15.1084 18.2999 15.1084 17.7049C15.1084 17.1099 15.5917 16.6265 16.1867 16.6265C16.7826 16.6265 17.2667 17.1099 17.2667 17.7049C17.2667 18.2999 16.7826 18.784 16.1867 18.784Z" fill="#04263F"/>
</svg>
