<svg width="25" height="24" viewBox="0 0 25 24" fill="none" xmlns="http://www.w3.org/2000/svg">
<path d="M14.5 22.75H10.5C5.07 22.75 2.75 20.43 2.75 15V9C2.75 3.57 5.07 1.25 10.5 1.25H14.5C19.93 1.25 22.25 3.57 22.25 9V15C22.25 20.43 19.93 22.75 14.5 22.75ZM10.5 2.75C5.89 2.75 4.25 4.39 4.25 9V15C4.25 19.61 5.89 21.25 10.5 21.25H14.5C19.11 21.25 20.75 19.61 20.75 15V9C20.75 4.39 19.11 2.75 14.5 2.75H10.5Z" fill="white"/>
<path d="M15.5 10.8281H9.5C8.26 10.8281 7.25 9.81812 7.25 8.57812V7.57812C7.25 6.33812 8.26 5.32812 9.5 5.32812H15.5C16.74 5.32812 17.75 6.33812 17.75 7.57812V8.57812C17.75 9.81812 16.74 10.8281 15.5 10.8281ZM9.5 6.82812C9.09 6.82812 8.75 7.16813 8.75 7.57812V8.57812C8.75 8.98813 9.09 9.32812 9.5 9.32812H15.5C15.91 9.32812 16.25 8.98813 16.25 8.57812V7.57812C16.25 7.16813 15.91 6.82812 15.5 6.82812H9.5Z" fill="white"/>
<path d="M8.65406 14.9228C8.52406 14.9228 8.39406 14.8928 8.27406 14.8428C8.15406 14.7928 8.04406 14.7228 7.95406 14.6328C7.76406 14.4428 7.66406 14.1928 7.66406 13.9228C7.66406 13.7928 7.68406 13.6628 7.73406 13.5428C7.78406 13.4128 7.85406 13.3128 7.95406 13.2128C7.99406 13.1728 8.04406 13.1228 8.10406 13.0928C8.15406 13.0528 8.21406 13.0228 8.27406 13.0028C8.33406 12.9728 8.40406 12.9528 8.46406 12.9428C8.78406 12.8728 9.13406 12.9828 9.36406 13.2128C9.45406 13.3028 9.53406 13.4128 9.58406 13.5428C9.63406 13.6628 9.66406 13.7928 9.66406 13.9228C9.66406 14.1928 9.55406 14.4428 9.36406 14.6328C9.17406 14.8228 8.92406 14.9228 8.65406 14.9228Z" fill="white"/>
<path d="M12.6641 14.9219C12.3941 14.9219 12.1441 14.8219 11.9541 14.6319C11.7641 14.4419 11.6641 14.1919 11.6641 13.9219C11.6641 13.7919 11.6841 13.6619 11.7341 13.5419C11.7841 13.4119 11.8541 13.3119 11.9541 13.2119C11.9941 13.1719 12.0441 13.1219 12.1041 13.0919C12.1541 13.0519 12.2141 13.0219 12.2741 13.0019C12.3341 12.9719 12.4041 12.9519 12.4641 12.9419C12.6541 12.9019 12.8541 12.9219 13.0441 13.0019C13.1641 13.0519 13.2741 13.1219 13.3641 13.2119C13.4541 13.3119 13.5341 13.4119 13.5841 13.5419C13.6341 13.6619 13.6641 13.7919 13.6641 13.9219C13.6641 14.1919 13.5541 14.4419 13.3641 14.6319C13.1741 14.8219 12.9241 14.9219 12.6641 14.9219Z" fill="white"/>
<path d="M16.6541 14.9172C16.5241 14.9172 16.3941 14.8872 16.2741 14.8372C16.1541 14.7872 16.0441 14.7172 15.9541 14.6272C15.8541 14.5272 15.7841 14.4172 15.7341 14.2972C15.6841 14.1772 15.6641 14.0472 15.6641 13.9172C15.6641 13.7872 15.6841 13.6572 15.7341 13.5372C15.7841 13.4072 15.8541 13.3072 15.9541 13.2072C16.3241 12.8372 16.9941 12.8372 17.3641 13.2072C17.5541 13.3972 17.6641 13.6572 17.6641 13.9172C17.6641 14.1872 17.5541 14.4372 17.3641 14.6272C17.1841 14.8072 16.9341 14.9172 16.6541 14.9172Z" fill="white"/>
<path d="M8.65844 18.919C8.38844 18.919 8.13844 18.819 7.94844 18.629C7.75844 18.439 7.64844 18.189 7.64844 17.919C7.64844 17.659 7.75844 17.399 7.94844 17.209C7.98844 17.169 8.04844 17.119 8.09844 17.089C8.14844 17.049 8.20844 17.019 8.26844 16.999C8.32844 16.969 8.39844 16.949 8.45844 16.939C8.78844 16.879 9.12844 16.979 9.35844 17.209C9.40844 17.259 9.44844 17.309 9.48844 17.359C9.51844 17.419 9.54844 17.479 9.57844 17.539C9.59844 17.599 9.61844 17.659 9.63844 17.719C9.64844 17.789 9.65844 17.849 9.65844 17.919C9.65844 18.189 9.54844 18.439 9.35844 18.629C9.16844 18.819 8.91844 18.919 8.65844 18.919Z" fill="white"/>
<path d="M12.6584 18.919C12.3884 18.919 12.1384 18.819 11.9484 18.629C11.7584 18.439 11.6484 18.189 11.6484 17.919C11.6484 17.659 11.7584 17.399 11.9484 17.209C12.1784 16.979 12.5284 16.879 12.8484 16.939C12.9084 16.949 12.9784 16.969 13.0384 16.999C13.0984 17.019 13.1584 17.049 13.2084 17.089C13.2584 17.119 13.3084 17.169 13.3584 17.209C13.5484 17.399 13.6484 17.659 13.6484 17.919C13.6484 18.189 13.5484 18.439 13.3584 18.629C13.1684 18.819 12.9184 18.919 12.6584 18.919Z" fill="white"/>
<path d="M16.6541 18.9163C16.3941 18.9163 16.1441 18.8163 15.9541 18.6263C15.7641 18.4363 15.6641 18.1863 15.6641 17.9163C15.6641 17.6563 15.7641 17.3963 15.9541 17.2063C16.0441 17.1163 16.1541 17.0463 16.2741 16.9963C16.6441 16.8463 17.0941 16.9263 17.3641 17.2063C17.5541 17.3963 17.6541 17.6563 17.6541 17.9163C17.6541 18.1863 17.5541 18.4363 17.3641 18.6263C17.2741 18.7163 17.1641 18.7863 17.0441 18.8363C16.9241 18.8863 16.7941 18.9163 16.6541 18.9163Z" fill="white"/>
</svg>
