<svg width="18" height="17" viewBox="0 0 18 17" fill="none" xmlns="http://www.w3.org/2000/svg">
<path fill-rule="evenodd" clip-rule="evenodd" d="M3.77332 4.95618L4.27582 10.9328C4.31249 11.3928 4.68832 11.7378 5.14749 11.7378H5.15082H14.2433H14.245C14.6792 11.7378 15.05 11.4145 15.1117 10.9853L15.9033 5.51951C15.9217 5.38951 15.8892 5.25951 15.81 5.15451C15.7317 5.04868 15.6167 4.98034 15.4867 4.96201C15.3125 4.96868 8.08499 4.95868 3.77332 4.95618V4.95618ZM5.14582 12.9878C4.04832 12.9878 3.11915 12.1312 3.02999 11.0353L2.26665 1.95701L1.01082 1.74034C0.669987 1.68034 0.442487 1.35784 0.50082 1.01701C0.56082 0.676178 0.889987 0.454511 1.22332 0.507845L2.95665 0.807845C3.23582 0.857011 3.44832 1.08868 3.47249 1.37201L3.66832 3.70618C15.565 3.71118 15.6033 3.71701 15.6608 3.72368C16.125 3.79118 16.5333 4.03368 16.8117 4.40701C17.09 4.77951 17.2067 5.23868 17.14 5.69868L16.3492 11.1637C16.2 12.2037 15.2967 12.9878 14.2467 12.9878H14.2425H5.15249H5.14582Z" fill="#04263F"/>
<path fill-rule="evenodd" clip-rule="evenodd" d="M12.9067 8.03644H10.5967C10.2508 8.03644 9.97168 7.75644 9.97168 7.41144C9.97168 7.06644 10.2508 6.78644 10.5967 6.78644H12.9067C13.2517 6.78644 13.5317 7.06644 13.5317 7.41144C13.5317 7.75644 13.2517 8.03644 12.9067 8.03644" fill="#04263F"/>
<path fill-rule="evenodd" clip-rule="evenodd" d="M4.78717 15.2516C5.03801 15.2516 5.24051 15.4541 5.24051 15.7049C5.24051 15.9558 5.03801 16.1591 4.78717 16.1591C4.53551 16.1591 4.33301 15.9558 4.33301 15.7049C4.33301 15.4541 4.53551 15.2516 4.78717 15.2516" fill="#04263F"/>
</svg>
