<svg width="22" height="22" viewBox="0 0 22 22" fill="none" xmlns="http://www.w3.org/2000/svg">
<path fill-rule="evenodd" clip-rule="evenodd" d="M17.0187 22H15.0947C13.9927 21.974 13.1427 21.109 13.1427 20.031V16.955C13.1427 16.586 12.8357 16.286 12.4587 16.286H9.5727C9.2037 16.288 8.8987 16.589 8.8987 16.955V20.021C8.8987 20.096 8.8887 20.168 8.8677 20.236C8.7597 21.226 7.9137 22 6.8887 22H4.9647C2.6357 22 0.741699 20.121 0.741699 17.812V9.098C0.751699 8.104 1.2097 7.194 2.0007 6.595L8.5357 1.35C9.9747 0.210001 11.9797 0.210001 13.4157 1.348L19.9977 6.598C20.7707 7.187 21.2287 8.095 21.2417 9.077V17.812C21.2417 20.121 19.3477 22 17.0187 22Z" fill="white"/>
</svg>
