<svg width="25" height="23" viewBox="0 0 25 23" fill="none" xmlns="http://www.w3.org/2000/svg">
<path d="M11.7611 21.5767L11.7612 21.5766L11.7515 21.5733C9.71077 20.8734 7.02505 19.2607 4.85629 16.8854C2.69363 14.5167 1.08125 11.432 1.08125 7.77801C1.08125 4.21052 3.96557 1.32051 7.505 1.32051C9.22742 1.32051 10.832 1.99194 12.0207 3.19077L12.5 3.67419L12.9793 3.19077C14.168 1.99194 15.7726 1.32051 17.495 1.32051C21.0337 1.32051 23.9188 4.22107 23.9188 7.77801C23.9188 11.4378 22.3062 14.5225 20.1438 16.8895C17.9753 19.2632 15.2896 20.8733 13.2485 21.5733L13.2485 21.5732L13.2389 21.5767C13.0525 21.6437 12.7977 21.683 12.5 21.683C12.2023 21.683 11.9475 21.6437 11.7611 21.5767Z" stroke="#6F4801" stroke-width="1.35"/>
</svg>
