<svg width="21" height="20" viewBox="0 0 21 20" fill="none" xmlns="http://www.w3.org/2000/svg">
<path d="M10.5165 2.42499C7.75816 2.42499 5.5165 4.66665 5.5165 7.42499V9.83332C5.5165 10.3417 5.29983 11.1167 5.0415 11.55L4.08316 13.1417C3.4915 14.125 3.89983 15.2167 4.98316 15.5833C8.57483 16.7833 12.4498 16.7833 16.0415 15.5833C17.0498 15.25 17.4915 14.0583 16.9415 13.1417L15.9832 11.55C15.7332 11.1167 15.5165 10.3417 15.5165 9.83332V7.42499C15.5165 4.67499 13.2665 2.42499 10.5165 2.42499Z" stroke="#10011C" stroke-miterlimit="10" stroke-linecap="round"/>
<path d="M12.0584 2.66667C11.8001 2.59167 11.5334 2.53334 11.2584 2.5C10.4584 2.4 9.69176 2.45834 8.9751 2.66667C9.21676 2.05 9.81676 1.61667 10.5168 1.61667C11.2168 1.61667 11.8168 2.05 12.0584 2.66667Z" stroke="#10011C" stroke-width="1.5" stroke-miterlimit="10" stroke-linecap="round" stroke-linejoin="round"/>
<path d="M13.0166 15.8833C13.0166 17.2583 11.8916 18.3833 10.5166 18.3833C9.83327 18.3833 9.19993 18.1 8.74993 17.65C8.29993 17.2 8.0166 16.5667 8.0166 15.8833" stroke="#10011C" stroke-miterlimit="10"/>
<path d="M18.929 5.70834C18.929 8.13149 16.9647 10.0958 14.5415 10.0958C12.1184 10.0958 10.154 8.13149 10.154 5.70834C10.154 3.28519 12.1184 1.32084 14.5415 1.32084C16.9647 1.32084 18.929 3.28519 18.929 5.70834Z" fill="#F82929" stroke="white" stroke-width="0.975"/>
<path d="M13.7512 7.15849C13.7512 7.33744 13.8158 7.47663 13.945 7.57605C14.0792 7.6705 14.2607 7.71772 14.4894 7.71772C14.723 7.71772 14.9144 7.6357 15.0635 7.47166C15.2126 7.30762 15.2872 7.09138 15.2872 6.82295C15.2872 6.25626 15.0312 5.97292 14.5192 5.97292C14.4247 5.97292 14.2532 6.00026 14.0047 6.05494C13.7611 6.10465 13.5573 6.1295 13.3933 6.1295C13.2342 6.1295 13.0851 6.09968 12.9459 6.04003C13.0602 5.37889 13.1174 4.75255 13.1174 4.16101C13.1174 3.75836 13.3386 3.55704 13.781 3.55704C14.7155 3.55704 15.4413 3.48247 15.9583 3.33334C16.0179 3.53218 16.0477 3.71114 16.0477 3.87021C16.0477 4.02928 15.9881 4.15355 15.8688 4.24303C15.7545 4.32753 15.6078 4.36979 15.4289 4.36979C15.2549 4.36979 14.9939 4.35239 14.6459 4.31759C14.298 4.27782 14.0867 4.25545 14.0121 4.25048C13.9525 4.52389 13.9227 4.91659 13.9227 5.4286C14.2806 5.35403 14.554 5.31675 14.7429 5.31675C15.2002 5.31675 15.5705 5.42611 15.8539 5.64483C16.1372 5.86356 16.2789 6.1817 16.2789 6.59926C16.2789 7.14109 16.0751 7.58102 15.6675 7.91904C15.2648 8.2521 14.7777 8.41862 14.206 8.41862C13.8232 8.41862 13.4927 8.34158 13.2143 8.18748C12.9409 8.03338 12.8042 7.80223 12.8042 7.49403C12.8042 7.29519 12.8713 7.13612 13.0055 7.01682C13.1397 6.89751 13.3088 6.83786 13.5126 6.83786C13.6219 6.83786 13.7189 6.85029 13.8034 6.87514C13.7686 6.97456 13.7512 7.06901 13.7512 7.15849Z" fill="white"/>
</svg>
